<mxfile host="Electron" modified="2024-04-02T11:34:26.381Z" agent="Mozilla/5.0 (Windows NT 10.0; Win64; x64) AppleWebKit/537.36 (KHTML, like Gecko) draw.io/24.0.4 Chrome/120.0.6099.109 Electron/28.1.0 Safari/537.36" etag="eiKNMopfJwOWEXgGEfjH" version="24.0.4" type="device">
  <diagram name="PÃ¡gina-1" id="QZ93JGQBfLPORqEI1yTh">
    <mxGraphModel dx="1290" dy="621" grid="1" gridSize="10" guides="1" tooltips="1" connect="1" arrows="1" fold="1" page="1" pageScale="1" pageWidth="827" pageHeight="1169" math="0" shadow="0">
      <root>
        <mxCell id="0" />
        <mxCell id="1" parent="0" />
        <mxCell id="PXhx6YmLBL8I6YDMxCwu-1" value="Inicio" style="ellipse;whiteSpace=wrap;html=1;" parent="1" vertex="1">
          <mxGeometry x="181" y="20" width="120" height="80" as="geometry" />
        </mxCell>
        <mxCell id="PXhx6YmLBL8I6YDMxCwu-2" value="" style="endArrow=classic;html=1;rounded=0;exitX=0.5;exitY=1;exitDx=0;exitDy=0;" parent="1" source="PXhx6YmLBL8I6YDMxCwu-1" edge="1">
          <mxGeometry width="50" height="50" relative="1" as="geometry">
            <mxPoint x="77" y="250" as="sourcePoint" />
            <mxPoint x="241" y="160" as="targetPoint" />
          </mxGeometry>
        </mxCell>
        <mxCell id="PXhx6YmLBL8I6YDMxCwu-3" value="Leer n" style="shape=parallelogram;perimeter=parallelogramPerimeter;whiteSpace=wrap;html=1;fixedSize=1;" parent="1" vertex="1">
          <mxGeometry x="181" y="160" width="120" height="60" as="geometry" />
        </mxCell>
        <mxCell id="PXhx6YmLBL8I6YDMxCwu-4" value="" style="endArrow=classic;html=1;rounded=0;" parent="1" edge="1">
          <mxGeometry width="50" height="50" relative="1" as="geometry">
            <mxPoint x="240.66" y="220" as="sourcePoint" />
            <mxPoint x="240.66" y="270" as="targetPoint" />
          </mxGeometry>
        </mxCell>
        <mxCell id="PXhx6YmLBL8I6YDMxCwu-5" value="i = 2" style="rounded=0;whiteSpace=wrap;html=1;" parent="1" vertex="1">
          <mxGeometry x="181" y="270" width="120" height="60" as="geometry" />
        </mxCell>
        <mxCell id="PXhx6YmLBL8I6YDMxCwu-6" value="" style="endArrow=classic;html=1;rounded=0;" parent="1" edge="1">
          <mxGeometry width="50" height="50" relative="1" as="geometry">
            <mxPoint x="240.66" y="330" as="sourcePoint" />
            <mxPoint x="240.66" y="380" as="targetPoint" />
          </mxGeometry>
        </mxCell>
        <mxCell id="PXhx6YmLBL8I6YDMxCwu-8" value="" style="endArrow=classic;html=1;rounded=0;" parent="1" edge="1">
          <mxGeometry width="50" height="50" relative="1" as="geometry">
            <mxPoint x="311.66999999999996" y="420" as="sourcePoint" />
            <mxPoint x="380" y="420" as="targetPoint" />
            <Array as="points">
              <mxPoint x="340" y="420" />
            </Array>
          </mxGeometry>
        </mxCell>
        <mxCell id="PXhx6YmLBL8I6YDMxCwu-10" value="" style="endArrow=classic;html=1;rounded=0;" parent="1" edge="1">
          <mxGeometry width="50" height="50" relative="1" as="geometry">
            <mxPoint x="240.5" y="460" as="sourcePoint" />
            <mxPoint x="240.91" y="510" as="targetPoint" />
          </mxGeometry>
        </mxCell>
        <mxCell id="RwcE0SjOvqU5sVk-3Rbg-1" value="" style="endArrow=classic;html=1;rounded=0;" edge="1" parent="1" target="PXhx6YmLBL8I6YDMxCwu-13">
          <mxGeometry width="50" height="50" relative="1" as="geometry">
            <mxPoint x="240.66" y="440" as="sourcePoint" />
            <mxPoint x="240.66" y="490" as="targetPoint" />
          </mxGeometry>
        </mxCell>
        <mxCell id="PXhx6YmLBL8I6YDMxCwu-13" value="n&amp;gt;1?" style="rhombus;whiteSpace=wrap;html=1;" parent="1" vertex="1">
          <mxGeometry x="171.5" y="380" width="139" height="80" as="geometry" />
        </mxCell>
        <mxCell id="RwcE0SjOvqU5sVk-3Rbg-2" value="Mostrar &quot;No tiene divisores&quot;" style="shape=parallelogram;perimeter=parallelogramPerimeter;whiteSpace=wrap;html=1;fixedSize=1;" vertex="1" parent="1">
          <mxGeometry x="370" y="390" width="190" height="60" as="geometry" />
        </mxCell>
        <mxCell id="RwcE0SjOvqU5sVk-3Rbg-3" value="Si" style="text;html=1;align=center;verticalAlign=middle;whiteSpace=wrap;rounded=0;" vertex="1" parent="1">
          <mxGeometry x="230" y="450" width="60" height="30" as="geometry" />
        </mxCell>
        <mxCell id="RwcE0SjOvqU5sVk-3Rbg-5" value="No" style="text;html=1;align=center;verticalAlign=middle;whiteSpace=wrap;rounded=0;" vertex="1" parent="1">
          <mxGeometry x="290" y="390" width="60" height="30" as="geometry" />
        </mxCell>
        <mxCell id="RwcE0SjOvqU5sVk-3Rbg-8" value="n%i = 0" style="rhombus;whiteSpace=wrap;html=1;" vertex="1" parent="1">
          <mxGeometry x="171.5" y="510" width="139" height="80" as="geometry" />
        </mxCell>
        <mxCell id="RwcE0SjOvqU5sVk-3Rbg-9" value="" style="endArrow=classic;html=1;rounded=0;" edge="1" parent="1">
          <mxGeometry width="50" height="50" relative="1" as="geometry">
            <mxPoint x="240.5" y="590" as="sourcePoint" />
            <mxPoint x="240.91" y="640" as="targetPoint" />
          </mxGeometry>
        </mxCell>
        <mxCell id="RwcE0SjOvqU5sVk-3Rbg-10" value="Si" style="text;html=1;align=center;verticalAlign=middle;whiteSpace=wrap;rounded=0;" vertex="1" parent="1">
          <mxGeometry x="276" y="590" width="60" height="30" as="geometry" />
        </mxCell>
        <mxCell id="RwcE0SjOvqU5sVk-3Rbg-11" value="" style="endArrow=classic;html=1;rounded=0;" edge="1" parent="1">
          <mxGeometry width="50" height="50" relative="1" as="geometry">
            <mxPoint x="310.49999999999994" y="549.5" as="sourcePoint" />
            <mxPoint x="378.83" y="549.5" as="targetPoint" />
            <Array as="points">
              <mxPoint x="338.83" y="549.5" />
            </Array>
          </mxGeometry>
        </mxCell>
        <mxCell id="RwcE0SjOvqU5sVk-3Rbg-13" value="Mostrar i" style="shape=parallelogram;perimeter=parallelogramPerimeter;whiteSpace=wrap;html=1;fixedSize=1;" vertex="1" parent="1">
          <mxGeometry x="146" y="640" width="190" height="60" as="geometry" />
        </mxCell>
        <mxCell id="RwcE0SjOvqU5sVk-3Rbg-14" value="No" style="text;html=1;align=center;verticalAlign=middle;whiteSpace=wrap;rounded=0;" vertex="1" parent="1">
          <mxGeometry x="290" y="520" width="60" height="30" as="geometry" />
        </mxCell>
        <mxCell id="RwcE0SjOvqU5sVk-3Rbg-15" value="i=i+1" style="rounded=0;whiteSpace=wrap;html=1;" vertex="1" parent="1">
          <mxGeometry x="380" y="520" width="120" height="60" as="geometry" />
        </mxCell>
        <mxCell id="RwcE0SjOvqU5sVk-3Rbg-16" value="" style="endArrow=classic;html=1;rounded=0;" edge="1" parent="1">
          <mxGeometry width="50" height="50" relative="1" as="geometry">
            <mxPoint x="500" y="550" as="sourcePoint" />
            <mxPoint x="610" y="550" as="targetPoint" />
            <Array as="points">
              <mxPoint x="580" y="550" />
            </Array>
          </mxGeometry>
        </mxCell>
        <mxCell id="RwcE0SjOvqU5sVk-3Rbg-19" value="i&amp;lt;n" style="rhombus;whiteSpace=wrap;html=1;" vertex="1" parent="1">
          <mxGeometry x="610" y="510" width="139" height="80" as="geometry" />
        </mxCell>
        <mxCell id="RwcE0SjOvqU5sVk-3Rbg-20" value="" style="endArrow=classic;html=1;rounded=0;entryX=0.333;entryY=1;entryDx=0;entryDy=0;entryPerimeter=0;" edge="1" parent="1" target="RwcE0SjOvqU5sVk-3Rbg-3">
          <mxGeometry width="50" height="50" relative="1" as="geometry">
            <mxPoint x="680" y="509" as="sourcePoint" />
            <mxPoint x="250" y="490" as="targetPoint" />
            <Array as="points">
              <mxPoint x="680" y="480" />
            </Array>
          </mxGeometry>
        </mxCell>
        <mxCell id="RwcE0SjOvqU5sVk-3Rbg-21" value="Si" style="text;html=1;align=center;verticalAlign=middle;whiteSpace=wrap;rounded=0;" vertex="1" parent="1">
          <mxGeometry x="630" y="490" width="60" height="30" as="geometry" />
        </mxCell>
        <mxCell id="RwcE0SjOvqU5sVk-3Rbg-22" value="No" style="text;html=1;align=center;verticalAlign=middle;whiteSpace=wrap;rounded=0;" vertex="1" parent="1">
          <mxGeometry x="640" y="585" width="60" height="30" as="geometry" />
        </mxCell>
        <mxCell id="RwcE0SjOvqU5sVk-3Rbg-23" value="No" style="text;html=1;align=center;verticalAlign=middle;whiteSpace=wrap;rounded=0;" vertex="1" parent="1">
          <mxGeometry x="1049.5" y="600" width="60" height="30" as="geometry" />
        </mxCell>
        <mxCell id="RwcE0SjOvqU5sVk-3Rbg-25" value="No" style="text;html=1;align=center;verticalAlign=middle;whiteSpace=wrap;rounded=0;" vertex="1" parent="1">
          <mxGeometry x="1069.5" y="590" width="60" height="30" as="geometry" />
        </mxCell>
        <mxCell id="RwcE0SjOvqU5sVk-3Rbg-26" value="" style="endArrow=classic;html=1;rounded=0;" edge="1" parent="1">
          <mxGeometry width="50" height="50" relative="1" as="geometry">
            <mxPoint x="680" y="590" as="sourcePoint" />
            <mxPoint x="680.41" y="640" as="targetPoint" />
          </mxGeometry>
        </mxCell>
        <mxCell id="RwcE0SjOvqU5sVk-3Rbg-27" value="Mostrar &quot;No tiene divisores&quot;" style="shape=parallelogram;perimeter=parallelogramPerimeter;whiteSpace=wrap;html=1;fixedSize=1;" vertex="1" parent="1">
          <mxGeometry x="584.5" y="640" width="190" height="60" as="geometry" />
        </mxCell>
        <mxCell id="RwcE0SjOvqU5sVk-3Rbg-28" value="" style="endArrow=classic;html=1;rounded=0;" edge="1" parent="1">
          <mxGeometry width="50" height="50" relative="1" as="geometry">
            <mxPoint x="240" y="700" as="sourcePoint" />
            <mxPoint x="240" y="850" as="targetPoint" />
          </mxGeometry>
        </mxCell>
        <mxCell id="RwcE0SjOvqU5sVk-3Rbg-29" value="" style="endArrow=classic;html=1;rounded=0;" edge="1" parent="1">
          <mxGeometry width="50" height="50" relative="1" as="geometry">
            <mxPoint x="679" y="700" as="sourcePoint" />
            <mxPoint x="250" y="780" as="targetPoint" />
            <Array as="points">
              <mxPoint x="680" y="780" />
            </Array>
          </mxGeometry>
        </mxCell>
        <mxCell id="RwcE0SjOvqU5sVk-3Rbg-30" value="Fin" style="ellipse;whiteSpace=wrap;html=1;" vertex="1" parent="1">
          <mxGeometry x="181" y="850" width="120" height="80" as="geometry" />
        </mxCell>
      </root>
    </mxGraphModel>
  </diagram>
</mxfile>
